<?xml version="1.0" standalone="no"?><!DOCTYPE svg PUBLIC "-//W3C//DTD SVG 1.1//EN" "http://www.w3.org/Graphics/SVG/1.1/DTD/svg11.dtd"><svg t="1617795445001" class="icon" viewBox="0 0 1024 1024" version="1.1" xmlns="http://www.w3.org/2000/svg" p-id="1486" xmlns:xlink="http://www.w3.org/1999/xlink" width="200" height="200"><defs><style type="text/css"></style></defs><path d="M512 512m-512 0a512 512 0 1 0 1024 0 512 512 0 1 0-1024 0Z" fill="#FFFFFF" p-id="1487"></path><path d="M357.262222 828.302222c-4.551111 0-9.102222-2.275556-11.377778-4.551111-6.826667-6.826667-6.826667-18.204444 0-25.031111l298.097778-282.168889L345.884444 225.28c-6.826667-6.826667-6.826667-18.204444 0-25.031111 6.826667-6.826667 18.204444-6.826667 25.031112 0l309.475555 304.924444c2.275556 2.275556 4.551111 6.826667 4.551111 11.377778s-2.275556 9.102222-4.551111 11.377778l-311.751111 295.822222c-2.275556 2.275556-6.826667 4.551111-11.377778 4.551111z" fill="#1A1311" p-id="1488"></path></svg>