<?xml version="1.0" standalone="no"?><!DOCTYPE svg PUBLIC "-//W3C//DTD SVG 1.1//EN" "http://www.w3.org/Graphics/SVG/1.1/DTD/svg11.dtd"><svg t="1610614893374" class="icon" viewBox="0 0 1024 1024" version="1.1" xmlns="http://www.w3.org/2000/svg" p-id="1537" xmlns:xlink="http://www.w3.org/1999/xlink" width="200" height="200"><defs><style type="text/css"></style></defs><path d="M505.507404 9.84783c233.755234 0 423.238809 189.483574 423.238809 423.238808 0 154.907234-131.268085 345.545532-396.723745 579.845447a40.044936 40.044936 0 0 1-53.00834 0C213.558468 778.63217 82.290383 587.993872 82.290383 433.086638 82.290383 199.331404 271.773957 9.84783 505.507404 9.84783z m0 80.111659c-189.483574 0-343.105362 153.621787-343.105361 343.127149 0 113.642213 99.306213 266.457872 295.69634 452.302979l19.608511 18.388426 20.262127 18.606297 7.538383 6.819405 17.734809-16.122554 19.957106-18.519148c202.839149-190.006468 305.435234-345.981277 305.435234-461.475405 0-189.505362-153.621787-343.127149-343.127149-343.127149z m1.024 136.322724l6.427234 0.130723a206.760851 206.760851 0 1 1-214.16851 205.213958c0.152511-11.111489 1.089362-22.157617 2.701617-32.942298l1.939064-11.612596a40.524255 40.524255 0 0 1 45.60068-31.635064l1.960851 0.435745c23.94417 7.037277 36.362894 26.406128 30.95966 48.738042l-2.265872 9.804256-1.459745 5.882553c-0.849702 3.921702-1.394383 7.865191-1.65583 11.677957 0 76.603915 51.59217 129.742979 125.864851 129.742979 71.353191 0 131.660255-58.60766 131.660256-127.978213a126.58383 126.58383 0 0 0-35.513192-91.375659 130.004426 130.004426 0 0 0-94.229787-38.28017c-8.867404 0-18.845957 2.265872-34.075234 7.342297l-9.804256 3.398809c-21.26434 5.947915-40.742128-1.851915-50.067063-20.174979l-0.326809-1.350808-1.307234-3.420596a41.395745 41.395745 0 0 1 0.958638-28.541277c4.401021-10.152851 12.593021-18.19234 24.902809-22.811234l-1.241872 0.305022a216.84834 216.84834 0 0 1 73.139744-12.549447z" fill="#fe5100" p-id="1538"></path></svg>