<?xml version="1.0" standalone="no"?><!DOCTYPE svg PUBLIC "-//W3C//DTD SVG 1.1//EN" "http://www.w3.org/Graphics/SVG/1.1/DTD/svg11.dtd"><svg t="1610614993874" class="icon" viewBox="0 0 1024 1024" version="1.1" xmlns="http://www.w3.org/2000/svg" p-id="1428" xmlns:xlink="http://www.w3.org/1999/xlink" width="200" height="200"><defs><style type="text/css"></style></defs><path d="M371.790769 152.300308a23.867077 23.867077 0 0 0-33.792 0l-265.846154 265.806769a23.867077 23.867077 0 0 0 0 33.792l358.557539 358.557538a32.571077 32.571077 0 1 1-46.08 46.08L26.190769 497.900308a88.969846 88.969846 0 0 1 0-125.873231L291.84 106.299077a88.969846 88.969846 0 0 1 125.952 0l93.814154 93.735385 94.916923-94.838154a87.630769 87.630769 0 0 1 123.904 0l267.815385 267.815384a87.630769 87.630769 0 0 1 0 123.943385l-117.83877 117.878154a32.571077 32.571077 0 0 1-46.08-46.08l117.878154-117.878154a22.449231 22.449231 0 0 0 0-31.744l-267.815384-267.933539a22.449231 22.449231 0 0 0-31.704616 0l-117.956923 117.956924-96.256 96.216615 1.929846 1.890461a57.619692 57.619692 0 0 0 82.038154-0.630153l53.878154-55.296a32.571077 32.571077 0 0 1 46.355692-0.315077l257.772308 257.772307a32.571077 32.571077 0 0 1 0 46.08l-234.338462 234.338462a32.571077 32.571077 0 1 1-46.08-46.08l234.338462-234.338462v46.08l-234.417231-234.496-30.798769 31.625847a122.761846 122.761846 0 0 1-174.867692 1.299692l-8.940308-9.058462a55.059692 55.059692 0 0 1 0-77.942154l80.344615-80.226461L371.790769 152.300308z" fill="#fe5100" p-id="1429"></path><path d="M607.153231 794.742154c2.875077-2.56 5.789538-5.395692 8.585846-8.270769l46.395077 46.395077c-91.844923 91.923692-185.895385 91.254154-264.664616 33.752615a215.04 215.04 0 0 1-41.629538-39.069539l51.712-40.290461c4.686769 5.907692 14.572308 16.108308 28.672 26.387692 36.273231 26.505846 74.24 35.446154 115.593846 18.392616l-28.632615-28.790154a32.807385 32.807385 0 1 1 46.552615-46.276923l37.100308 37.415384a33.476923 33.476923 0 0 1 0.315077 0.354462z m0-74.515692l37.139692 37.415384a32.807385 32.807385 0 0 0 46.592-46.237538l-37.139692-37.415385a32.807385 32.807385 0 1 0-46.513231 46.237539h-0.078769z m81.998769-82.983385l37.100308 37.376a32.807385 32.807385 0 0 0 46.592-46.237539l-37.100308-37.415384a32.846769 32.846769 0 0 0-46.592 46.276923z" fill="#fe5100" p-id="1430"></path></svg>