<?xml version="1.0" standalone="no"?><!DOCTYPE svg PUBLIC "-//W3C//DTD SVG 1.1//EN" "http://www.w3.org/Graphics/SVG/1.1/DTD/svg11.dtd"><svg t="1610614211848" class="icon" viewBox="0 0 1024 1024" version="1.1" xmlns="http://www.w3.org/2000/svg" p-id="1397" xmlns:xlink="http://www.w3.org/1999/xlink" width="200" height="200"><defs><style type="text/css"></style></defs><path d="M702.7 442.7c9.8 5.7 15.9 16.1 15.9 27.4 0 11.3-6.1 21.8-15.9 27.4-9.8 5.7-22 5.7-31.8 0S655 481.4 655 470.1c0-11.3 6.1-21.8 15.9-27.4 9.9-5.6 22-5.6 31.8 0z m-174.8 0c9.8 5.7 15.8 16.1 15.8 27.4 0 17.5-14.2 31.7-31.6 31.7-17.5 0-31.6-14.2-31.6-31.7 0-11.3 6-21.8 15.8-27.4 9.8-5.6 21.9-5.6 31.6 0z m-206.1-0.4c9.8-5.7 21.8-5.7 31.6 0s15.8 16.2 15.8 27.6-6 21.9-15.8 27.6c-9.8 5.7-21.8 5.7-31.6 0S306 481.3 306 469.9s6-21.9 15.8-27.6z m523.7 329.5s-286.2-0.5-301.6 0c-15.4 0.5-31 4.8-47.6 15.9-41.7 27.7-111.2 79.3-111.2 79.3-21.3 20-62.5 28-63.5-15.9V740c0-32.2 48.1-31.6 47.6 0v79.4L480.4 740c11.6-8.2 32.3-16.5 63.5-15.9h301.6c26.8 0 31.7-10.8 31.7-31.7V279.7c0-21-4.9-31.7-31.7-31.7 0 0-652.5 0.5-666.7 0-16.9-0.1-32.3 15.2-31.7 31.7v412.7c0 21 4.9 31.7 31.7 31.7h63.5c25.3 0.5 25.8 47.1 0 47.6-15.9 0.5-63.5 0-63.5 0-46.2-1-79.4-32-79.4-79.4V279.7c0.5-47.3 32.7-79.4 79.4-79.4h666.7c45.7 0 79.9 32 79.4 79.4v412.7c-0.1 47.8-31.8 79.4-79.4 79.4z" fill="#fe5100" p-id="1398"></path></svg>