<?xml version="1.0" standalone="no"?><!DOCTYPE svg PUBLIC "-//W3C//DTD SVG 1.1//EN" "http://www.w3.org/Graphics/SVG/1.1/DTD/svg11.dtd"><svg t="1610614283409" class="icon" viewBox="0 0 1024 1024" version="1.1" xmlns="http://www.w3.org/2000/svg" p-id="1397" xmlns:xlink="http://www.w3.org/1999/xlink" width="200" height="200"><defs><style type="text/css"></style></defs><path d="M372.015407 817.85363c0 51.067259-39.215407 92.368593-87.476148 92.368592-48.355556 0-87.570963-41.415111-87.570963-92.368592 0-51.086222 39.215407-92.501333 87.570963-92.501334 48.260741 0 87.476148 41.415111 87.476148 92.501334z m490.059852 0c0 51.067259-39.215407 92.368593-87.570963 92.368592-48.355556 0-87.570963-41.415111-87.570963-92.368592 0-51.086222 39.215407-92.501333 87.570963-92.501334 48.355556 0 87.570963 41.415111 87.570963 92.501334z m78.222222-315.012741l-78.222222-147.209482c-15.947852-20.385185-26.832593-37.015704-52.527407-37.015703h-122.500741v-110.933334C687.028148 187.297185 671.288889 170.666667 651.96563 170.666667H91.932444C72.628148 170.666667 56.888889 187.297185 56.888889 207.68237v554.590815c0 20.385185 15.739259 37.015704 35.043555 37.015704h69.783704c8.647111-63.734519 60.055704-112.981333 122.728296-112.981333 62.672593 0 114.176 49.360593 122.709334 112.981333h244.622222c8.647111-63.734519 60.150519-112.981333 122.728296-112.981333 62.672593 0 114.176 49.360593 122.709334 112.981333h34.853926c19.304296 0 35.043556-16.630519 35.043555-37.015704v-184.756148c0-35.081481-26.81363-74.676148-26.81363-74.676148z m-218.206814 74.676148v-184.869926h85.63674c5.688889 0 13.50163 8.704 13.50163 8.704l73.765926 144.725333c6.485333 10.202074 13.596444 22.20563 13.596444 31.440593H722.10963z" fill="#fe5100" p-id="1398"></path></svg>