<?xml version="1.0" standalone="no"?><!DOCTYPE svg PUBLIC "-//W3C//DTD SVG 1.1//EN" "http://www.w3.org/Graphics/SVG/1.1/DTD/svg11.dtd"><svg t="1610614100153" class="icon" viewBox="0 0 1024 1024" version="1.1" xmlns="http://www.w3.org/2000/svg" p-id="1397" xmlns:xlink="http://www.w3.org/1999/xlink" width="200" height="200"><defs><style type="text/css"></style></defs><path d="M948.90666667 434.3277037v349.52533333A87.38133333 87.38133333 0 0 1 861.52533333 871.23437037H162.47466667A87.38133333 87.38133333 0 0 1 75.09333333 783.85303703v-349.52533333h-58.25422222v349.52533333A145.63555555 145.63555555 0 0 0 162.47466667 929.48859259h699.05066666A145.63555555 145.63555555 0 0 0 1007.16088889 783.85303703v-349.52533333h-58.25422222z" fill="#FE5100" p-id="1398"></path><path d="M424.61866667 463.45481482v-58.25422223h524.288V240.14696297A87.38133333 87.38133333 0 0 0 861.52533333 152.76562963H162.47466667A87.38133333 87.38133333 0 0 0 75.09333333 240.14696297v165.05362962h135.92651852v58.25422223h-194.18074074V240.14696297A145.63555555 145.63555555 0 0 1 162.47466667 94.51140741h699.05066666A145.63555555 145.63555555 0 0 1 1007.16088889 240.14696297v223.30785185h-582.54222222z" fill="#FE5100" p-id="1399"></path><path d="M317.81925925 571.57465125l-106.7994074 146.1404255V94.51140741h213.59881482v623.20366934L317.81925925 571.57465125zM269.27407408 152.76562963v386.53618252L317.81925925 472.85316267l48.5451852 66.40981333V152.76562963h-97.09037037z" fill="#FE5100" p-id="1400"></path></svg>